# xmcd
#
# Track frame offsets:
#	150
#	19938
#	43689
#	63242
#	77315
#	89840
#	106402
#	126120
#	138371
#	152377
#	167206
#	184234
#	196963
#	210486
#
# Disc length: 2958 seconds
#
# Revision: 1
# Processed by: cddbd v1.5.1PL2 Copyright (c) Steve Scherf et al.
# Submitted via: audiograbber 1.83.01
#
DISCID=b80b8c0e
DTITLE=Mercury Dimes - Dime-O-Mite!
DYEAR=2005
DGENRE=Blugrass
TTITLE0=Shady Grove
TTITLE1=Indian Ate a Woodchuck/Streak of Lean Streak of Fat
TTITLE2=Lover's Lane
TTITLE3=High up on Tug
TTITLE4=Who's That Knocking at My Window?
TTITLE5=I've Always Been a Rambler
TTITLE6=Rive Miles of Ellum Wood/Featherbed
TTITLE7=Graveyard
TTITLE8=Old Horse and Buggy
TTITLE9=You Are My Flower
TTITLE10=No Letter in the Mail
TTITLE11=Sal's Gone to the Cidermill
TTITLE12=That Crazy, Crazy Feeling
TTITLE13=Sandy River Hoedown
EXTD=
EXTT0=
EXTT1=
EXTT2=
EXTT3=
EXTT4=
EXTT5=
EXTT6=
EXTT7=
EXTT8=
EXTT9=
EXTT10=
EXTT11=
EXTT12=
EXTT13=
PLAYORDER=
